<svg xmlns="http://www.w3.org/2000/svg" xmlns:xlink="http://www.w3.org/1999/xlink" width="1500" zoomAndPan="magnify" viewBox="0 0 1125 1124.99995" height="1500" preserveAspectRatio="xMidYMid meet" version="1.0"><defs><clipPath id="562a8b300b"><path d="M 20 252.382812 L 536 252.382812 L 536 766.882812 L 20 766.882812 Z M 20 252.382812" clip-rule="nonzero"></path></clipPath><clipPath id="568368615c"><path d="M 305 252.382812 L 820 252.382812 L 820 766.882812 L 305 766.882812 Z M 305 252.382812" clip-rule="nonzero"></path></clipPath><clipPath id="2790d4631a"><path d="M 589 252.382812 L 1105 252.382812 L 1105 766.882812 L 589 766.882812 Z M 589 252.382812" clip-rule="nonzero"></path></clipPath></defs><g clip-path="url(#562a8b300b)"><path fill="#a14a32" d="M 277.925781 766.90625 C 136.183594 766.90625 20.664062 651.605469 20.664062 509.644531 C 20.664062 367.6875 136.183594 252.382812 277.925781 252.382812 C 419.667969 252.382812 535.1875 367.902344 535.1875 509.644531 C 535.1875 651.390625 419.886719 766.90625 277.925781 766.90625 Z M 277.925781 269.941406 C 145.71875 269.941406 38.21875 377.4375 38.21875 509.644531 C 38.21875 641.851562 145.71875 749.351562 277.925781 749.351562 C 410.132812 749.351562 517.632812 641.851562 517.632812 509.644531 C 517.632812 377.4375 410.132812 269.941406 277.925781 269.941406 Z M 277.925781 269.941406" fill-opacity="1" fill-rule="nonzero"></path></g><g clip-path="url(#568368615c)"><path fill="#a14a32" d="M 562.496094 766.90625 C 420.535156 766.90625 305.234375 651.605469 305.234375 509.644531 C 305.234375 367.6875 420.535156 252.382812 562.496094 252.382812 C 704.457031 252.382812 819.757812 367.902344 819.757812 509.644531 C 819.757812 651.390625 704.457031 766.90625 562.496094 766.90625 Z M 562.496094 269.941406 C 430.289062 269.941406 322.789062 377.4375 322.789062 509.644531 C 322.789062 641.851562 430.289062 749.351562 562.496094 749.351562 C 694.703125 749.351562 802.203125 641.851562 802.203125 509.644531 C 802.203125 377.4375 694.703125 269.941406 562.496094 269.941406 Z M 562.496094 269.941406" fill-opacity="1" fill-rule="nonzero"></path></g><g clip-path="url(#2790d4631a)"><path fill="#a14a32" d="M 847.066406 766.90625 C 705.105469 766.90625 589.804688 651.605469 589.804688 509.644531 C 589.804688 367.6875 705.105469 252.382812 847.066406 252.382812 C 989.027344 252.382812 1104.328125 367.902344 1104.328125 509.644531 C 1104.328125 651.390625 989.027344 766.90625 847.066406 766.90625 Z M 847.066406 269.941406 C 714.859375 269.941406 607.359375 377.4375 607.359375 509.644531 C 607.359375 641.851562 714.859375 749.351562 847.066406 749.351562 C 979.273438 749.351562 1086.773438 641.851562 1086.773438 509.644531 C 1086.773438 377.4375 979.273438 269.941406 847.066406 269.941406 Z M 847.066406 269.941406" fill-opacity="1" fill-rule="nonzero"></path></g><path fill="#a14a32" d="M 717.675781 342.761719 L 691.886719 342.761719 C 696.003906 338.859375 700.339844 335.175781 704.671875 331.707031 C 709.222656 335.175781 713.558594 339.078125 717.675781 342.761719 Z M 717.675781 342.761719" fill-opacity="1" fill-rule="nonzero"></path><path fill="#a14a32" d="M 751.054688 381.773438 L 658.507812 381.773438 C 662.625 375.707031 666.960938 369.855469 671.730469 364.21875 L 737.832031 364.21875 C 742.601562 369.855469 746.9375 375.707031 751.054688 381.773438 Z M 751.054688 381.773438" fill-opacity="1" fill-rule="nonzero"></path><path fill="#a14a32" d="M 772.292969 420.785156 L 637.269531 420.785156 C 639.871094 414.71875 642.6875 408.867188 645.722656 403.230469 L 763.839844 403.230469 C 766.875 408.867188 769.691406 414.933594 772.292969 420.785156 Z M 772.292969 420.785156" fill-opacity="1" fill-rule="nonzero"></path><path fill="#a14a32" d="M 784.863281 459.796875 L 624.914062 459.796875 C 626.214844 453.730469 627.734375 447.878906 629.683594 442.242188 L 780.3125 442.242188 C 781.828125 448.09375 783.5625 453.945312 784.863281 459.796875 Z M 784.863281 459.796875" fill-opacity="1" fill-rule="nonzero"></path><path fill="#a14a32" d="M 790.066406 498.808594 L 619.496094 498.808594 C 619.714844 492.957031 620.363281 486.890625 621.015625 481.253906 L 788.546875 481.253906 C 789.199219 487.105469 789.847656 492.957031 790.066406 498.808594 Z M 790.066406 498.808594" fill-opacity="1" fill-rule="nonzero"></path><path fill="#a14a32" d="M 790.066406 520.265625 C 789.847656 526.117188 789.199219 532.1875 788.546875 537.820312 L 621.015625 537.820312 C 620.148438 531.96875 619.714844 526.117188 619.496094 520.265625 Z M 790.066406 520.265625" fill-opacity="1" fill-rule="nonzero"></path><path fill="#a14a32" d="M 784.863281 559.277344 C 783.5625 565.128906 782.046875 571.199219 780.097656 576.832031 L 629.25 576.832031 C 627.515625 570.980469 625.78125 565.128906 624.480469 559.277344 Z M 784.863281 559.277344" fill-opacity="1" fill-rule="nonzero"></path><path fill="#a14a32" d="M 772.292969 598.289062 C 769.691406 604.359375 767.09375 610.210938 763.839844 615.84375 L 645.503906 615.84375 C 642.472656 609.992188 639.652344 604.140625 637.050781 598.289062 Z M 772.292969 598.289062" fill-opacity="1" fill-rule="nonzero"></path><path fill="#a14a32" d="M 751.269531 637.300781 C 747.152344 643.371094 742.816406 649.222656 738.050781 654.855469 L 671.730469 654.855469 C 666.960938 649.222656 662.625 643.371094 658.507812 637.300781 Z M 751.269531 637.300781" fill-opacity="1" fill-rule="nonzero"></path><path fill="#a14a32" d="M 717.894531 676.3125 C 713.777344 680.214844 709.222656 684.117188 704.671875 687.800781 C 700.121094 684.117188 695.785156 680.433594 691.453125 676.3125 Z M 717.894531 676.3125" fill-opacity="1" fill-rule="nonzero"></path><path fill="#a14a32" d="M 433.105469 342.761719 L 407.316406 342.761719 C 411.433594 338.859375 415.769531 335.175781 420.101562 331.707031 C 424.65625 335.175781 428.988281 339.078125 433.105469 342.761719 Z M 433.105469 342.761719" fill-opacity="1" fill-rule="nonzero"></path><path fill="#a14a32" d="M 505.496094 498.808594 L 334.925781 498.808594 C 335.144531 492.957031 335.792969 486.890625 336.445312 481.253906 L 503.980469 481.253906 C 504.628906 487.105469 505.277344 492.957031 505.496094 498.808594 Z M 505.496094 498.808594" fill-opacity="1" fill-rule="nonzero"></path><path fill="#a14a32" d="M 433.324219 676.3125 C 429.207031 680.214844 424.65625 684.117188 420.101562 687.800781 C 415.550781 684.117188 411.21875 680.433594 406.882812 676.3125 Z M 433.324219 676.3125" fill-opacity="1" fill-rule="nonzero"></path><path fill="#a14a32" d="M 466.484375 381.773438 L 373.9375 381.773438 C 378.058594 375.707031 382.390625 369.855469 387.160156 364.21875 L 453.261719 364.21875 C 458.03125 369.855469 462.367188 375.707031 466.484375 381.773438 Z M 466.484375 381.773438" fill-opacity="1" fill-rule="nonzero"></path><path fill="#a14a32" d="M 487.722656 420.785156 L 352.699219 420.785156 C 355.300781 414.71875 358.117188 408.867188 361.152344 403.230469 L 479.269531 403.230469 C 482.304688 408.867188 485.121094 414.933594 487.722656 420.785156 Z M 487.722656 420.785156" fill-opacity="1" fill-rule="nonzero"></path><path fill="#a14a32" d="M 500.292969 459.796875 L 340.34375 459.796875 C 341.644531 453.730469 343.164062 447.878906 345.113281 442.242188 L 495.742188 442.242188 C 497.261719 448.09375 498.992188 453.945312 500.292969 459.796875 Z M 500.292969 459.796875" fill-opacity="1" fill-rule="nonzero"></path><path fill="#a14a32" d="M 466.699219 637.300781 C 462.582031 643.371094 458.246094 649.222656 453.480469 654.855469 L 386.941406 654.855469 C 382.175781 649.222656 377.839844 643.371094 373.722656 637.300781 Z M 466.699219 637.300781" fill-opacity="1" fill-rule="nonzero"></path><path fill="#a14a32" d="M 487.722656 598.289062 C 485.121094 604.359375 482.304688 610.210938 479.269531 615.84375 L 360.933594 615.84375 C 357.902344 609.992188 355.082031 604.140625 352.484375 598.289062 Z M 487.722656 598.289062" fill-opacity="1" fill-rule="nonzero"></path><path fill="#a14a32" d="M 500.292969 559.277344 C 498.992188 565.128906 497.476562 571.199219 495.527344 576.832031 L 344.679688 576.832031 C 342.945312 570.980469 341.210938 565.128906 339.910156 559.277344 Z M 500.292969 559.277344" fill-opacity="1" fill-rule="nonzero"></path><path fill="#a14a32" d="M 505.496094 520.265625 C 505.277344 526.117188 504.628906 532.1875 503.980469 537.820312 L 336.445312 537.820312 C 335.578125 531.96875 335.144531 526.117188 334.925781 520.265625 Z M 505.496094 520.265625" fill-opacity="1" fill-rule="nonzero"></path><path fill="#a14a32" d="M 466.484375 381.773438 L 373.9375 381.773438 C 378.058594 375.707031 382.390625 369.855469 387.160156 364.21875 L 453.261719 364.21875 C 458.03125 369.855469 462.367188 375.707031 466.484375 381.773438 Z M 466.484375 381.773438" fill-opacity="1" fill-rule="nonzero"></path><path fill="#a14a32" d="M 487.722656 420.785156 L 352.699219 420.785156 C 355.300781 414.71875 358.117188 408.867188 361.152344 403.230469 L 479.269531 403.230469 C 482.304688 408.867188 485.121094 414.933594 487.722656 420.785156 Z M 487.722656 420.785156" fill-opacity="1" fill-rule="nonzero"></path><path fill="#a14a32" d="M 500.292969 459.796875 L 340.34375 459.796875 C 341.644531 453.730469 343.164062 447.878906 345.113281 442.242188 L 495.742188 442.242188 C 497.261719 448.09375 498.992188 453.945312 500.292969 459.796875 Z M 500.292969 459.796875" fill-opacity="1" fill-rule="nonzero"></path><path fill="#a14a32" d="M 505.496094 520.265625 C 505.277344 526.117188 504.628906 532.1875 503.980469 537.820312 L 336.445312 537.820312 C 335.578125 531.96875 335.144531 526.117188 334.925781 520.265625 Z M 505.496094 520.265625" fill-opacity="1" fill-rule="nonzero"></path><path fill="#a14a32" d="M 500.292969 559.277344 C 498.992188 565.128906 497.476562 571.199219 495.527344 576.832031 L 344.679688 576.832031 C 342.945312 570.980469 341.210938 565.128906 339.910156 559.277344 Z M 500.292969 559.277344" fill-opacity="1" fill-rule="nonzero"></path><path fill="#a14a32" d="M 487.722656 598.289062 C 485.121094 604.359375 482.304688 610.210938 479.269531 615.84375 L 360.933594 615.84375 C 357.902344 609.992188 355.082031 604.140625 352.484375 598.289062 Z M 487.722656 598.289062" fill-opacity="1" fill-rule="nonzero"></path><path fill="#a14a32" d="M 466.699219 637.300781 C 462.582031 643.371094 458.246094 649.222656 453.480469 654.855469 L 386.941406 654.855469 C 382.175781 649.222656 377.839844 643.371094 373.722656 637.300781 Z M 466.699219 637.300781" fill-opacity="1" fill-rule="nonzero"></path><path fill="#a14a32" d="M 433.105469 342.761719 L 407.316406 342.761719 C 411.433594 338.859375 415.769531 335.175781 420.101562 331.707031 C 424.65625 335.175781 428.988281 339.078125 433.105469 342.761719 Z M 433.105469 342.761719" fill-opacity="1" fill-rule="nonzero"></path><path fill="#a14a32" d="M 505.496094 498.808594 L 334.925781 498.808594 C 335.144531 492.957031 335.792969 486.890625 336.445312 481.253906 L 503.980469 481.253906 C 504.628906 487.105469 505.277344 492.957031 505.496094 498.808594 Z M 505.496094 498.808594" fill-opacity="1" fill-rule="nonzero"></path><path fill="#a14a32" d="M 407.097656 676.3125 L 433.324219 676.3125 C 429.207031 680.214844 424.65625 684.117188 420.101562 687.800781 C 415.769531 683.898438 411.21875 680.214844 407.097656 676.3125 Z M 407.097656 676.3125" fill-opacity="1" fill-rule="nonzero"></path></svg>